<mxfile host="www.draw.io" modified="2019-10-28T16:50:54.714Z" agent="Mozilla/5.0 (Windows NT 10.0; Win64; x64) AppleWebKit/537.36 (KHTML, like Gecko) Chrome/77.0.3865.120 Safari/537.36" etag="34DmjRPw2u8Rx-oxMarc" version="12.1.8" type="github" pages="1">
  <diagram id="Y4wU9pxLLigQ6-vOavdp" name="Page-1">
    <mxGraphModel dx="1422" dy="794" grid="1" gridSize="10" guides="1" tooltips="1" connect="1" arrows="1" fold="1" page="1" pageScale="1" pageWidth="850" pageHeight="1100" math="0" shadow="0">
      <root>
        <mxCell id="0"/>
        <mxCell id="1" parent="0"/>
        <mxCell id="3qZm0K_Gh0uCLv0Rns4X-1" value="" style="rounded=1;whiteSpace=wrap;html=1;fillColor=#f5f5f5;strokeColor=#666666;fontColor=#333333;" vertex="1" parent="1">
          <mxGeometry x="185" y="60" width="480" height="390" as="geometry"/>
        </mxCell>
        <mxCell id="3qZm0K_Gh0uCLv0Rns4X-2" value="" style="rounded=1;whiteSpace=wrap;html=1;fillColor=#f5f5f5;strokeColor=#666666;fontColor=#333333;" vertex="1" parent="1">
          <mxGeometry x="185" y="540" width="480" height="350" as="geometry"/>
        </mxCell>
        <mxCell id="3qZm0K_Gh0uCLv0Rns4X-3" value="Tether Interface Board" style="rounded=1;whiteSpace=wrap;html=1;fillColor=#fff2cc;strokeColor=#d6b656;fontStyle=1" vertex="1" parent="1">
          <mxGeometry x="356.5" y="560" width="135" height="70" as="geometry"/>
        </mxCell>
        <mxCell id="3qZm0K_Gh0uCLv0Rns4X-4" value="Tether Interface Board" style="rounded=1;whiteSpace=wrap;html=1;fillColor=#fff2cc;strokeColor=#d6b656;fontStyle=1" vertex="1" parent="1">
          <mxGeometry x="357" y="360" width="135" height="70" as="geometry"/>
        </mxCell>
        <mxCell id="3qZm0K_Gh0uCLv0Rns4X-5" value="" style="endArrow=classic;startArrow=classic;html=1;entryX=0.5;entryY=1;entryDx=0;entryDy=0;exitX=0.5;exitY=0;exitDx=0;exitDy=0;" edge="1" parent="1" source="3qZm0K_Gh0uCLv0Rns4X-3" target="3qZm0K_Gh0uCLv0Rns4X-4">
          <mxGeometry width="50" height="50" relative="1" as="geometry">
            <mxPoint x="340" y="430" as="sourcePoint"/>
            <mxPoint x="390" y="380" as="targetPoint"/>
          </mxGeometry>
        </mxCell>
        <mxCell id="3qZm0K_Gh0uCLv0Rns4X-6" value="&lt;b&gt;Tether Connection&lt;/b&gt;" style="text;html=1;strokeColor=none;fillColor=none;align=center;verticalAlign=middle;whiteSpace=wrap;rounded=0;" vertex="1" parent="1">
          <mxGeometry x="436.5" y="490" width="110" height="20" as="geometry"/>
        </mxCell>
        <mxCell id="3qZm0K_Gh0uCLv0Rns4X-7" value="&lt;b&gt;ROV Domain Software (See Diagram)&lt;/b&gt;" style="rounded=1;whiteSpace=wrap;html=1;fillColor=#d5e8d4;strokeColor=#82b366;" vertex="1" parent="1">
          <mxGeometry x="220" y="690" width="410" height="170" as="geometry"/>
        </mxCell>
        <mxCell id="3qZm0K_Gh0uCLv0Rns4X-8" value="&lt;b&gt;Base Station Domain Software (See Diagram)&lt;/b&gt;" style="rounded=1;whiteSpace=wrap;html=1;fillColor=#d5e8d4;strokeColor=#82b366;" vertex="1" parent="1">
          <mxGeometry x="220" y="90" width="410" height="190" as="geometry"/>
        </mxCell>
        <mxCell id="3qZm0K_Gh0uCLv0Rns4X-9" value="" style="endArrow=classic;startArrow=classic;html=1;entryX=0.5;entryY=0;entryDx=0;entryDy=0;exitX=0.5;exitY=1;exitDx=0;exitDy=0;" edge="1" parent="1" source="3qZm0K_Gh0uCLv0Rns4X-8" target="3qZm0K_Gh0uCLv0Rns4X-4">
          <mxGeometry width="50" height="50" relative="1" as="geometry">
            <mxPoint x="90" y="370" as="sourcePoint"/>
            <mxPoint x="140" y="320" as="targetPoint"/>
          </mxGeometry>
        </mxCell>
        <mxCell id="3qZm0K_Gh0uCLv0Rns4X-10" value="" style="endArrow=classic;startArrow=classic;html=1;entryX=0.5;entryY=1;entryDx=0;entryDy=0;exitX=0.5;exitY=0;exitDx=0;exitDy=0;" edge="1" parent="1" source="3qZm0K_Gh0uCLv0Rns4X-7" target="3qZm0K_Gh0uCLv0Rns4X-3">
          <mxGeometry width="50" height="50" relative="1" as="geometry">
            <mxPoint x="99.5" y="620" as="sourcePoint"/>
            <mxPoint x="149.5" y="570" as="targetPoint"/>
          </mxGeometry>
        </mxCell>
        <mxCell id="3qZm0K_Gh0uCLv0Rns4X-11" value="&lt;b&gt;Ethernet Connection&lt;/b&gt;" style="text;html=1;strokeColor=none;fillColor=none;align=center;verticalAlign=middle;whiteSpace=wrap;rounded=0;" vertex="1" parent="1">
          <mxGeometry x="436.5" y="650" width="133" height="20" as="geometry"/>
        </mxCell>
        <mxCell id="3qZm0K_Gh0uCLv0Rns4X-12" value="&lt;b&gt;Ethernet Connection&lt;/b&gt;" style="text;html=1;strokeColor=none;fillColor=none;align=center;verticalAlign=middle;whiteSpace=wrap;rounded=0;" vertex="1" parent="1">
          <mxGeometry x="436.5" y="310" width="133" height="20" as="geometry"/>
        </mxCell>
        <mxCell id="3qZm0K_Gh0uCLv0Rns4X-13" value="rosmaster" style="rounded=1;whiteSpace=wrap;html=1;fillColor=#e1d5e7;strokeColor=#9673a6;" vertex="1" parent="1">
          <mxGeometry x="250" y="210" width="120" height="60" as="geometry"/>
        </mxCell>
        <mxCell id="3qZm0K_Gh0uCLv0Rns4X-14" value="rosmaster" style="rounded=1;whiteSpace=wrap;html=1;fillColor=#e1d5e7;strokeColor=#9673a6;" vertex="1" parent="1">
          <mxGeometry x="250" y="700" width="120" height="60" as="geometry"/>
        </mxCell>
        <mxCell id="3qZm0K_Gh0uCLv0Rns4X-15" value="&lt;b style=&quot;font-size: 14px;&quot;&gt;Note: &lt;/b&gt;ROS Master Intially sets up connection between nodes that publish to and subscribe from a given topic. After This is completed, nodes communicate on a peer to peer basis" style="text;html=1;strokeColor=none;fillColor=none;align=center;verticalAlign=middle;whiteSpace=wrap;rounded=0;fontSize=14;" vertex="1" parent="1">
          <mxGeometry x="20" y="490" width="350" height="20" as="geometry"/>
        </mxCell>
      </root>
    </mxGraphModel>
  </diagram>
</mxfile>
